<?xml version="1.0" encoding="iso-8859-1"?>
<!-- Generator: Adobe Illustrator 22.0.1, SVG Export Plug-In . SVG Version: 6.00 Build 0)  -->
<svg xmlns="http://www.w3.org/2000/svg" xmlns:xlink="http://www.w3.org/1999/xlink" version="1.1" id="Layer_1" x="0px" y="0px" viewBox="0 0 30 30" style="enable-background:new 0 0 30 30;" xml:space="preserve" width="60px" height="60px">
<ellipse cx="19.5" cy="19" rx="1.5" ry="2"/>
<ellipse cx="10.5" cy="19" rx="1.5" ry="2"/>
<path d="M25.472,9.634c0.224-0.368,0.531-1.085,0.531-2.446C26.003,5.141,25.316,4,25.316,4c-1.069,0-3.58,0.432-5.657,2.499  C18.184,6.132,16.61,6,15.003,6c-1.574,0-3.115,0.087-4.562,0.405C10.348,6.319,7.762,4,4.659,4c-1.04,2.431-0.62,4.46-0.25,5.572  c-1.493,1.6-2.407,3.804-2.407,6.74c0,7.267,4.59,9.688,13,9.688s13-2.421,13-9.688C28.003,13.476,27.036,11.264,25.472,9.634z   M15.006,24L15.006,24c-0.001,0-0.002,0-0.003,0S15.001,24,15,24v0c-6.651-0.001-8.994-1.976-8.994-6.028  c0-2.47,1.478-4.472,4-4.472c1.303,0.014,3.452,0.499,4.997,0.5c1.545-0.001,3.694-0.486,4.997-0.5c2.522,0,4,2.002,4,4.472  C24,22.024,21.657,23.999,15.006,24z"/>
</svg>
